<?xml version="1.0" encoding="UTF-8"?>
<svg width="30px" height="31px" viewBox="0 0 30 31" version="1.1" xmlns="http://www.w3.org/2000/svg" xmlns:xlink="http://www.w3.org/1999/xlink">
    <!-- Generator: Sketch 43.2 (39069) - http://www.bohemiancoding.com/sketch -->
    <title>Group 17</title>
    <desc>Created with Sketch.</desc>
    <defs>
        <path d="M8.30357143,14.9420818 L7.14091137,13.8051323 C2.82328542,10.0695032 0,7.55256215 0,4.4667116 C0,1.94977059 1.99208352,0 4.5668309,0 C5.97891823,0 7.39011633,0.649561214 8.30357143,1.70520688 C9.21547039,0.650430774 10.6291139,0 12.040312,0 C14.6150593,0 16.6071429,1.94977059 16.6071429,4.4667116 C16.6071429,7.55256215 13.7838574,10.0695032 9.46556457,13.8051323 L8.30357143,14.9420818 Z" id="path-1"></path>
    </defs>
    <g id="Bookstore---Specs" stroke="none" stroke-width="1" fill="none" fill-rule="evenodd">
        <g id="Book-Page" transform="translate(-302.000000, -569.000000)">
            <g id="Group-17" transform="translate(304.000000, 571.000000)">
                <path d="M12.4188902,23.1184775 L27.12552,23.1184775 L27.12552,4 L12.4188902,4 C9.99237396,4 8.00704248,5.98533149 8.00704248,8.41184775 L8.00704248,24.5881522 C8.00704248,27.0146685 9.99237396,29 12.4188902,29 L27.12552,29 L27.12552,26.0592388 L12.4188902,26.0592388 C11.6095809,26.0592388 10.9478037,25.3974616 10.9478037,24.5881522 C10.9491837,23.7802194 11.6109574,23.1184422 12.4188902,23.1184422 L12.4188902,23.1184775 Z" id="Page-1" fill="#DADADA"></path>
                <g id="Page-1">
                    <use fill="#DADADA" fill-rule="evenodd" xlink:href="#path-1"></use>
                    <path stroke="#FFFFFF" stroke-width="2" d="M8.30352681,0.324776433 C7.25446461,-0.514102459 5.91360101,-1 4.5668309,-1 C1.44513698,-1 -1,1.39203882 -1,4.4667116 C-1,7.55988371 0.614441992,9.48074037 6.48661254,14.5613684 L7.60441408,15.6570497 L8.30377204,16.3409423 L9.00293382,15.6568491 L10.164927,14.5198996 C15.9920835,9.4814822 17.6071429,7.56001955 17.6071429,4.4667116 C17.6071429,1.39203882 15.1620059,-1 12.040312,-1 C10.6943588,-1 9.35231131,-0.513648896 8.30352681,0.324776433 Z"></path>
                </g>
            </g>
        </g>
    </g>
</svg>