<?xml version="1.0" encoding="utf-8"?>
<!-- Generator: Adobe Illustrator 21.1.0, SVG Export Plug-In . SVG Version: 6.00 Build 0)  -->
<svg version="1.1" id="Layer_1" xmlns="http://www.w3.org/2000/svg" xmlns:xlink="http://www.w3.org/1999/xlink" x="0px" y="0px"
	 viewBox="0 0 30 31" style="enable-background:new 0 0 30 31;" xml:space="preserve">
<style type="text/css">
	.st0{fill:#0099FF;}
	.st1{fill:#0099FF;stroke:#FFFFFF;stroke-width:2;}
</style>
<title>Group 17</title>
<desc>Created with Sketch.</desc>
<g id="Bookstore---Specs">
	<g id="Book-Page" transform="translate(-302.000000, -569.000000)">
		<g id="Group-17" transform="translate(304.000000, 571.000000)">
			<path id="Page-1" class="st0" d="M12.4,23.1h14.7V4H12.4C10,4,8,6,8,8.4v16.2C8,27,10,29,12.4,29h14.7v-2.9H12.4
				c-0.8,0-1.5-0.7-1.5-1.5C10.9,23.8,11.6,23.1,12.4,23.1L12.4,23.1z"/>
			<g id="Page-1_1_">
				<g>
					<path id="path-1" class="st0" d="M8.3,14.9l-1.2-1.1C2.8,10.1,0,7.6,0,4.5C0,1.9,2,0,4.6,0C6,0,7.4,0.6,8.3,1.7
						C9.2,0.7,10.6,0,12,0c2.6,0,4.6,1.9,4.6,4.5c0,3.1-2.8,5.6-7.1,9.3L8.3,14.9z"/>
				</g>
				<path class="st1" d="M8.3,0.3C7.3-0.5,5.9-1,4.6-1C1.4-1-1,1.4-1,4.5c0,3.1,1.6,5,7.5,10.1l1.1,1.1l0.7,0.7L9,15.7l1.2-1.1
					c5.8-5,7.4-7,7.4-10.1C17.6,1.4,15.2-1,12-1C10.7-1,9.4-0.5,8.3,0.3z"/>
			</g>
		</g>
	</g>
</g>
</svg>
