<?xml version="1.0" encoding="UTF-8"?>
<svg width="19px" height="19px" viewBox="0 0 19 19" version="1.1" xmlns="http://www.w3.org/2000/svg" xmlns:xlink="http://www.w3.org/1999/xlink">
    <!-- Generator: Sketch 43.2 (39069) - http://www.bohemiancoding.com/sketch -->
    <title>Group 24</title>
    <desc>Created with Sketch.</desc>
    <defs>
        <circle id="path-1" cx="6.43684211" cy="5.56315789" r="5.43684211"></circle>
        <filter x="-64.4%" y="-46.0%" width="228.8%" height="228.8%" filterUnits="objectBoundingBox" id="filter-2">
            <feOffset dx="0" dy="2" in="SourceAlpha" result="shadowOffsetOuter1"></feOffset>
            <feGaussianBlur stdDeviation="2" in="shadowOffsetOuter1" result="shadowBlurOuter1"></feGaussianBlur>
            <feColorMatrix values="0 0 0 0 0   0 0 0 0 0   0 0 0 0 0  0 0 0 0.5 0" type="matrix" in="shadowBlurOuter1"></feColorMatrix>
        </filter>
    </defs>
    <g id="Author-Page-Visuals" stroke="none" stroke-width="1" fill="none" fill-rule="evenodd">
        <g id="Author-Page---Store" transform="translate(-316.000000, -973.000000)">
            <g id="Group-24" transform="translate(319.200000, 975.000000)">
                <g id="Group-23">
                    <g id="Oval-13">
                        <use fill="black" fill-opacity="1" filter="url(#filter-2)" xlink:href="#path-1"></use>
                        <use fill="#FFFFFF" fill-rule="evenodd" xlink:href="#path-1"></use>
                    </g>
                    <circle id="Oval-12" cx="6" cy="5.87368421" r="5.36842105"></circle>
                    <path d="M11.9418945,5.97044211 C11.9418945,9.26842105 9.26905238,11.9432843 5.97094712,11.9432843 C2.67284185,11.9432843 0,9.26842105 0,5.97044211 C0,2.67435789 2.67284185,0 5.97094712,0 C9.26892606,-0.000492631579 11.9418945,2.67435789 11.9418945,5.97044211 Z M7.68239168,2.9276734 L9.68232784,4.92760956 L10.7688577,3.98622271 C10.7688577,3.98622271 10.6307161,3.48114959 9.88031979,2.73075328 C9.12992348,1.98035696 8.62485036,1.8422154 8.62485036,1.8422154 L7.68239168,2.9276734 Z M5.40707576,7.05692901 C5.36632583,6.95265869 5.17510318,6.5147663 5.50379991,6.16416352 C5.83249664,5.81356075 6.35237069,5.81487406 6.64867322,6.078849 C6.94497575,6.34282395 6.93517645,6.88081173 6.64867322,7.18553147 C6.36216999,7.49025121 5.84751349,7.37154098 5.63418191,7.28523174 L3.01718396,9.90222969 C4.11741844,8.99735191 5.4680557,8.44731751 6.88662537,8.31952812 L9.002514,5.4809314 L7.20839998,3.68681738 L4.36980326,5.80270601 C4.24515874,7.22294784 3.6927189,8.57117965 2.79073747,9.67332866 L5.40707576,7.05692901 Z" id="Page-1" fill="#0092FF"></path>
                </g>
            </g>
        </g>
    </g>
</svg>