<?xml version="1.0" encoding="UTF-8"?>
<svg width="76px" height="29px" viewBox="0 0 76 29" version="1.1" xmlns="http://www.w3.org/2000/svg" xmlns:xlink="http://www.w3.org/1999/xlink">
    <!-- Generator: Sketch 43.2 (39069) - http://www.bohemiancoding.com/sketch -->
    <title>Group 8</title>
    <desc>Created with Sketch.</desc>
    <defs></defs>
    <g id="Bookstore---Specs" stroke="none" stroke-width="1" fill="none" fill-rule="evenodd">
        <g id="Genre-Page---1" transform="translate(-47.000000, -17.000000)">
            <g id="nav">
                <g id="Group-8" transform="translate(47.000000, 17.000000)">
                    <g id="Group-14">
                        <path d="M7.26487775,23.4498893 C6.25219791,23.357052 3.95172103,26.7922381 2.13914638,28.3611419 C1.29029262,29.0958812 0,28.648059 0,28.648059 L0,2.12291184 C0,4.02031765e-06 1.92054045,4.02031765e-06 2.25347433,4.02031765e-06 L18.6643633,4.02031765e-06 C19.9089228,4.02031765e-06 20.9178377,0.999471763 20.9178377,2.23111643 L20.9178377,21.2037015 C20.9178377,22.4359109 19.9089269,23.4348139 18.6643633,23.4348139 L7.40449663,23.4348139 C7.37723741,23.4506133 7.33126119,23.455975 7.26487775,23.4498893 Z" id="Combined-Shape" fill="#0092FF"></path>
                        <path d="M6.95886632,15.4422579 C8.24811381,15.4422579 9.27548291,14.973635 10.0208291,14.3554516 L10.0208291,11.2246519 L6.78763813,11.2246519 L6.78763813,12.6404912 L8.16753584,12.6404912 L8.16753584,13.4880007 C7.88551295,13.677444 7.52291209,13.777151 7.03944428,13.777151 C5.92142497,13.777151 5.12571754,12.9695243 5.12571754,11.8328646 L5.12571754,11.8129232 C5.12571754,10.7460583 5.91135273,9.9085195 6.92864958,9.9085195 C7.6337068,9.9085195 8.12724686,10.1478163 8.63085916,10.5665857 L9.77909521,9.19062911 C9.033749,8.55250433 8.1574636,8.18358844 6.91857733,8.18358844 C4.74297219,8.18358844 3.13141282,9.7789004 3.13141282,11.8129232 L3.13141282,11.8328646 C3.13141282,13.9466529 4.76311668,15.4422579 6.95886632,15.4422579 Z M11.3591447,15.3026681 L11.3591447,8.32317823 L14.6930581,8.32317823 C15.7707885,8.32317823 16.5161347,8.60235783 16.9895302,9.07098072 C17.4024923,9.47977941 17.6140095,10.0082265 17.6140095,10.6962048 L17.6140095,10.7161462 C17.6140095,11.7929818 17.0398915,12.5009014 16.1636061,12.8698173 L17.8456712,15.3026681 L15.5995603,15.3026681 L14.1793736,13.1888797 L13.3131604,13.1888797 L13.3131604,15.3026681 L11.3591447,15.3026681 Z M13.1879039,11.6733334 L14.4872237,11.6733334 C15.1419197,11.6733334 15.5347373,11.354271 15.5347373,10.8457653 L15.5347373,10.8258239 C15.5347373,10.2674647 15.1217752,9.9882851 14.4771514,9.9882851 L13.1879039,9.9882851 L13.1879039,11.6733334 Z" id="GR" fill="#FFFFFF"></path>
                        <path d="M23.1421318,1.011189 C23.1489245,1.02222021 23.1623197,1.04315664 23.1780099,1.07009317 C23.2294584,1.15841872 23.2835074,1.27282007 23.3358115,1.41489805 C23.4956928,1.84919738 23.594217,2.41228475 23.594217,3.11792765 L23.594217,20.7402434 C23.594217,21.1451124 23.4973984,21.5950153 23.3343817,22.0472698 C23.2761163,22.2089143 23.2136873,22.3587295 23.1516755,22.4920603 C23.1157139,22.569381 23.0891338,22.6217904 23.0765826,22.6448594 C22.9125685,22.9463162 23.0264768,23.3223145 23.3310038,23.4846751 C23.6355308,23.6470356 24.0153585,23.5342757 24.1793726,23.2328189 C24.203854,23.1878221 24.242081,23.1124482 24.2894428,23.010616 C24.3663034,22.8453588 24.4427467,22.6619127 24.5140955,22.4639708 C24.7214051,21.8888355 24.8467822,21.3062254 24.8467822,20.7402434 L24.8467822,3.11792765 C24.8467822,2.26880633 24.7231107,1.56199677 24.5126657,0.990347085 C24.4353556,0.78034292 24.3505323,0.600804329 24.2631085,0.450717232 C24.2045388,0.350166317 24.153128,0.27658862 24.1138234,0.228756069 C23.8955601,-0.0368639804 23.501102,-0.0770379968 23.2327768,0.139024892 C22.9644515,0.355087781 22.9238684,0.745568955 23.1421318,1.011189 Z" id="Path-5" fill="#0092FF" fill-rule="nonzero"></path>
                    </g>
                    <path d="M38.995,17.15 C41.26,17.15 42.85,15.98 42.85,13.895 L42.85,13.865 C42.85,12.035 41.65,11.27 39.52,10.715 C37.705,10.25 37.255,10.025 37.255,9.335 L37.255,9.305 C37.255,8.795 37.72,8.39 38.605,8.39 C39.49,8.39 40.405,8.78 41.335,9.425 L42.535,7.685 C41.47,6.83 40.165,6.35 38.635,6.35 C36.49,6.35 34.96,7.61 34.96,9.515 L34.96,9.545 C34.96,11.63 36.325,12.215 38.44,12.755 C40.195,13.205 40.555,13.505 40.555,14.09 L40.555,14.12 C40.555,14.735 39.985,15.11 39.04,15.11 C37.84,15.11 36.85,14.615 35.905,13.835 L34.54,15.47 C35.8,16.595 37.405,17.15 38.995,17.15 Z M47.7011762,17.135 C48.4661762,17.135 49.0211762,16.955 49.5011762,16.67 L49.5011762,14.84 C49.1711762,15.02 48.7961762,15.125 48.3761762,15.125 C47.8661762,15.125 47.6411762,14.87 47.6411762,14.345 L47.6411762,10.91 L49.5311762,10.91 L49.5311762,8.96 L47.6411762,8.96 L47.6411762,6.905 L45.3611762,6.905 L45.3611762,8.96 L44.4011762,8.96 L44.4011762,10.91 L45.3611762,10.91 L45.3611762,14.72 C45.3611762,16.58 46.3061762,17.135 47.7011762,17.135 Z M55.3723525,17.18 C52.8823525,17.18 51.0373525,15.335 51.0373525,13.025 L51.0373525,12.995 C51.0373525,10.685 52.8973525,8.81 55.4023525,8.81 C57.8923525,8.81 59.7373525,10.655 59.7373525,12.965 L59.7373525,12.995 C59.7373525,15.305 57.8773525,17.18 55.3723525,17.18 Z M55.4023525,15.215 C56.7073525,15.215 57.4873525,14.21 57.4873525,13.025 L57.4873525,12.995 C57.4873525,11.81 56.6323525,10.775 55.3723525,10.775 C54.0673525,10.775 53.2873525,11.78 53.2873525,12.965 L53.2873525,12.995 C53.2873525,14.18 54.1423525,15.215 55.4023525,15.215 Z M61.8285287,17 L64.1085287,17 L64.1085287,14.03 C64.1085287,12.11 65.0385287,11.195 66.5535287,11.195 L66.6735287,11.195 L66.6735287,8.81 C65.3235287,8.75 64.5735287,9.47 64.1085287,10.58 L64.1085287,8.96 L61.8285287,8.96 L61.8285287,17 Z M72.1247049,17.18 C69.7097049,17.18 67.9247049,15.485 67.9247049,13.025 L67.9247049,12.995 C67.9247049,10.7 69.5597049,8.81 71.8997049,8.81 C74.5847049,8.81 75.8147049,10.895 75.8147049,13.175 C75.8147049,13.355 75.7997049,13.565 75.7847049,13.775 L70.1897049,13.775 C70.4147049,14.81 71.1347049,15.35 72.1547049,15.35 C72.9197049,15.35 73.4747049,15.11 74.1047049,14.525 L75.4097049,15.68 C74.6597049,16.61 73.5797049,17.18 72.1247049,17.18 Z M70.1597049,12.35 L73.5947049,12.35 C73.4597049,11.33 72.8597049,10.64 71.8997049,10.64 C70.9547049,10.64 70.3397049,11.315 70.1597049,12.35 Z" id="Store" fill="#0092FF"></path>
                </g>
            </g>
        </g>
    </g>
</svg>