<?xml version="1.0" encoding="UTF-8"?>
<svg width="21px" height="22px" viewBox="0 0 21 22" version="1.1" xmlns="http://www.w3.org/2000/svg" xmlns:xlink="http://www.w3.org/1999/xlink">
    <!-- Generator: Sketch 42 (36781) - http://www.bohemiancoding.com/sketch -->
    <title>Group 11</title>
    <desc>Created with Sketch.</desc>
    <defs></defs>
    <g id="Bookstore---Visuals" stroke="none" stroke-width="1" fill="none" fill-rule="evenodd">
        <g id="Bookstore---Logged-In" transform="translate(-1022.000000, -19.000000)">
            <g id="nav" transform="translate(-156.000000, 1.000000)">
                <g id="Group-11" transform="translate(1178.000000, 18.000000)">
                    <g id="Page-1" fill="#9B9B9B">
                        <path d="M2.45313875,1.01560864 L4.91713521,15.2013256 C4.95872704,15.4472946 5.18287099,15.6276595 5.44745915,15.6276595 L18.4015014,15.6276595 C18.6649242,15.6276595 18.8890563,15.4472834 18.9318254,15.2013256 L20.7815704,4.3448417 C20.8058328,4.19835347 20.761928,4.04749388 20.659102,3.9349075 C20.556273,3.82230992 20.4072321,3.75671709 20.2501048,3.75671709 L4.05579,3.75562285 L4.14246981,4.27725363 L4.2300342,4.77228655 L19.6227668,4.77228655 L17.9451625,14.6120508 L5.90506394,14.6120508 L3.44106749,0.426333814 C3.39947566,0.180364894 3.17533171,0 2.91074354,0 L0.690126642,0 C0.393198473,0 0.152881571,0.227383631 0.152881571,0.508331849 C0.152881571,0.789280068 0.393198473,1.01557226 0.690126642,1.01557226 L2.45313875,1.01560864 Z" id="Fill-1"></path>
                    </g>
                    <ellipse id="Oval-6" stroke="#9B9B9B" cx="17.0070423" cy="19.0675676" rx="1.92253521" ry="1.93243243"></ellipse>
                    <ellipse id="Oval-6" stroke="#9B9B9B" cx="6.95070423" cy="19.0675676" rx="1.92253521" ry="1.93243243"></ellipse>
                </g>
            </g>
        </g>
    </g>
</svg>