<?xml version="1.0" encoding="UTF-8"?>
<svg width="21px" height="22px" viewBox="0 0 21 22" version="1.1" xmlns="http://www.w3.org/2000/svg" xmlns:xlink="http://www.w3.org/1999/xlink">
    <!-- Generator: Sketch 43 (38999) - http://www.bohemiancoding.com/sketch -->
    <title>Group 19</title>
    <desc>Created with Sketch.</desc>
    <defs></defs>
    <g id="Bookstore---Specs" stroke="none" stroke-width="1" fill="none" fill-rule="evenodd">
        <g id="Bookstore---Logged-In" transform="translate(-1021.000000, -18.000000)">
            <g id="Group-19" transform="translate(1021.000000, 18.000000)">
                <g id="Group-11">
                    <g id="Page-1" fill="#FFFFFF">
                        <path d="M2.45313875,1.01560864 L4.91713521,15.2013256 C4.95872704,15.4472946 5.18287099,15.6276595 5.44745915,15.6276595 L18.4015014,15.6276595 C18.6649242,15.6276595 18.8890563,15.4472834 18.9318254,15.2013256 L20.7815704,4.3448417 C20.8058328,4.19835347 20.761928,4.04749388 20.659102,3.9349075 C20.556273,3.82230992 20.4072321,3.75671709 20.2501048,3.75671709 C20.2501048,3.75671709 20.0569709,3.74667942 19.9365234,3.86752319 C19.8160759,3.98836697 19.7651215,4.095047 19.7493286,4.17437744 C19.7335358,4.25370789 19.6227668,4.77228655 19.6227668,4.77228655 L17.9451625,14.6120508 L5.90506394,14.6120508 L3.44106749,0.426333814 C3.39947566,0.180364894 3.17533171,0 2.91074354,0 L0.690126642,0 C0.393198473,0 0.152881571,0.227383631 0.152881571,0.508331849 C0.152881571,0.789280068 0.393198473,1.01557226 0.690126642,1.01557226 L2.45313875,1.01560864 Z" id="Fill-1"></path>
                    </g>
                    <ellipse id="Oval-6" stroke="#FFFFFF" cx="17.0070423" cy="19.0675676" rx="1.92253521" ry="1.93243243"></ellipse>
                    <ellipse id="Oval-6" stroke="#FFFFFF" cx="6.95070423" cy="19.0675676" rx="1.92253521" ry="1.93243243"></ellipse>
                </g>
            </g>
        </g>
    </g>
</svg>