<?xml version="1.0" encoding="UTF-8" standalone="no"?>
<svg width="17px" height="18px" viewBox="0 0 17 18" version="1.1" xmlns="http://www.w3.org/2000/svg" xmlns:xlink="http://www.w3.org/1999/xlink">
    <!-- Generator: Sketch 42 (36781) - http://www.bohemiancoding.com/sketch -->
    <title>Page 1</title>
    <desc>Created with Sketch.</desc>
    <defs></defs>
    <g id="Styleguide" stroke="none" stroke-width="1" fill="none" fill-rule="evenodd">
        <g id="Style-Guide---Draft" transform="translate(-210.000000, -1969.000000)" stroke="#000000" stroke-width="0.3" fill="#000000">
            <path d="M218.514955,1970.06745 L211.149531,1975.5925 C211.056481,1975.66149 210.99903,1975.77566 211.000012,1975.89178 L211.000012,1986.20338 C211.000012,1986.39611 211.175555,1986.57165 211.368284,1986.57165 L216.339945,1986.57165 C216.532674,1986.57165 216.708217,1986.39611 216.708217,1986.20338 L216.708217,1979.5745 L220.7592,1979.5745 L220.7592,1986.20338 C220.7592,1986.39611 220.934743,1986.57165 221.127472,1986.57165 L226.099133,1986.57165 C226.291862,1986.57165 226.467405,1986.39611 226.467405,1986.20338 L226.467405,1975.89178 C226.467405,1975.77566 226.410936,1975.66149 226.317886,1975.5925 L218.952462,1970.06843 C218.783548,1969.96974 218.660791,1969.98496 218.514955,1970.06843 L218.514955,1970.06745 Z M218.733708,1970.82707 L225.730862,1976.07494 L225.730862,1985.83412 L221.495743,1985.83412 L221.495743,1979.20524 C221.495743,1979.01251 221.3202,1978.83697 221.127472,1978.83697 L216.339945,1978.83697 C216.147217,1978.83697 215.971674,1979.01251 215.971674,1979.20524 L215.971674,1985.83412 L211.736555,1985.83412 L211.736555,1976.07494 L218.733708,1970.82707 Z" id="Page-1"></path>
        </g>
    </g>
</svg>