<?xml version="1.0" encoding="utf-8"?>
<!-- Generator: Adobe Illustrator 19.0.0, SVG Export Plug-In . SVG Version: 6.00 Build 0)  -->
<svg version="1.1" id="Layer_1" xmlns="http://www.w3.org/2000/svg" xmlns:xlink="http://www.w3.org/1999/xlink" x="0px" y="0px"
	 viewBox="-631 392 17 18" style="enable-background:new -631 392 17 18;" xml:space="preserve">
<style type="text/css">
	.st0{fill:#979797;stroke:#979797;stroke-width:0.3;}
</style>
<title>Page 1</title>
<desc>Created with Sketch.</desc>
<g id="Feed_x2F_Profile-Visuals">
	<g id="Reed-Feed-V2" transform="translate(-547.000000, -23.000000)">
		<g id="Group-5" transform="translate(548.000000, 16.000000)">
			<path id="Page-1" class="st0" d="M-623.5,399.5l-7.4,5.5c-0.1,0.1-0.2,0.2-0.1,0.3v10.3c0,0.2,0.2,0.4,0.4,0.4h5
				c0.2,0,0.4-0.2,0.4-0.4V409h4.1v6.6c0,0.2,0.2,0.4,0.4,0.4h5c0.2,0,0.4-0.2,0.4-0.4v-10.3c0-0.1-0.1-0.2-0.1-0.3l-7.4-5.5
				C-623.2,399.4-623.3,399.4-623.5,399.5L-623.5,399.5z M-623.3,400.3l7,5.2v9.8h-4.2v-6.6c0-0.2-0.2-0.4-0.4-0.4h-4.8
				c-0.2,0-0.4,0.2-0.4,0.4v6.6h-4.2v-9.8L-623.3,400.3z"/>
		</g>
	</g>
</g>
</svg>
