<?xml version="1.0" encoding="UTF-8" standalone="no"?>
<svg width="21px" height="21px" viewBox="0 0 21 21" version="1.1" xmlns="http://www.w3.org/2000/svg" xmlns:xlink="http://www.w3.org/1999/xlink">
    <!-- Generator: Sketch 42 (36781) - http://www.bohemiancoding.com/sketch -->
    <title>Page 1</title>
    <desc>Created with Sketch.</desc>
    <defs></defs>
    <g id="Styleguide" stroke="none" stroke-width="1" fill="none" fill-rule="evenodd">
        <g id="Style-Guide---Draft" transform="translate(-390.000000, -1967.000000)" stroke="#000000" stroke-width="0.5" fill="#000000">
            <g id="Page-1" transform="translate(391.000000, 1967.000000)">
                <path d="M9.51332264,0.655045421 C4.26986108,0.655045421 0,4.94533645 0,10.2138863 C0,15.4824362 4.26986108,19.7727273 9.51332264,19.7727273 C11.2462977,19.7727273 12.9792727,19.3059726 14.4591229,18.369631 L18.6038309,19.7727273 L18.6872663,19.7727273 C18.7712654,19.7727273 18.8569558,19.73081 18.8986735,19.6888927 C18.9826726,19.6044917 19.0266453,19.476474 18.9826726,19.3478899 L17.5862578,15.1833507 C18.5158855,13.6964199 18.9826726,11.9551531 18.9826726,10.2138863 C19.0266453,4.94533645 14.7567842,0.655045421 9.51332264,0.655045421 Z M16.9542913,15.2281003 L18.1810166,18.9230525 L14.5036593,17.6904577 C14.4196602,17.6485404 14.3339699,17.6904577 14.2499707,17.732375 C12.812402,18.6245335 11.206835,19.1354712 9.51557765,19.1354712 C4.61149506,19.1354712 0.636476519,15.1414334 0.636476519,10.2138863 C0.636476519,5.28633925 4.61149506,1.29230148 9.51557765,1.29230148 C14.4196602,1.29230148 18.3946788,5.28633925 18.3946788,10.2138863 C18.3946788,11.9132358 17.9301468,13.5706681 16.9982639,14.970932 C16.9542913,15.0575989 16.9542913,15.1414334 16.9542913,15.2281003 Z" id="Fill-1"></path>
            </g>
        </g>
    </g>
</svg>