<?xml version="1.0" encoding="UTF-8" standalone="no"?>
<svg width="18px" height="21px" viewBox="0 0 18 21" version="1.1" xmlns="http://www.w3.org/2000/svg" xmlns:xlink="http://www.w3.org/1999/xlink">
    <!-- Generator: Sketch 42 (36781) - http://www.bohemiancoding.com/sketch -->
    <title>Page 1</title>
    <desc>Created with Sketch.</desc>
    <defs></defs>
    <g id="Feed/Profile-Visuals" stroke="none" stroke-width="1" fill="none" fill-rule="evenodd">
        <g id="Reed-Feed-V2" transform="translate(-1208.000000, -18.000000)" fill="#979797">
            <g id="Group-5" transform="translate(548.000000, 16.000000)">
                <g id="Group-4" transform="translate(660.000000, 0.000000)">
                    <g id="Page-1" transform="translate(0.000000, 2.000000)">
                        <path d="M8.59290718,1.12187324 C9.11532284,1.12187324 9.54100565,1.554 9.54100565,2.08432394 L10.4891041,2.08432394 C10.4891041,1.02367606 9.64006941,0.160605634 8.59407264,0.160605634 C7.54924132,0.160605634 6.69904116,1.02249296 6.69904116,2.08432394 L7.64713963,2.08432394 C7.64480872,1.554 8.06932607,1.12187324 8.59290718,1.12187324 Z" id="Fill-1"></path>
                        <path d="M8.58853672,19.8781268 C7.9897837,19.8781268 7.43881437,19.6666479 7.07460936,19.2957465 C6.90183051,19.1203521 6.69671025,18.8290141 6.69671025,18.4362254 L5.74861178,18.4338592 C5.74773769,18.9976056 5.97966344,19.5453803 6.4033067,19.9751408 C6.94262147,20.5240986 7.73921065,20.8393944 8.58737127,20.8393944 C10.1546182,20.8393944 11.4302098,19.7604085 11.4337062,18.4350423 L10.4856077,18.4326761 C10.4856077,19.2312676 9.63424213,19.8781268 8.58853672,19.8781268 Z" id="Fill-2"></path>
                        <path d="M17.1097684,15.9106056 C17.1712462,15.2347606 17.2429217,14.2134507 16.8070412,13.3965211 L16.7318692,13.3157746 C16.6019209,13.1584225 16.4472066,13.0129014 16.2846255,12.8602817 C15.6471211,12.2607465 14.7741945,11.4393803 14.5862647,9.02230986 C14.3316126,5.81374648 12.1906699,2.56495775 8.59290718,2.56495775 C4.99427038,2.56495775 2.85449314,5.81374648 2.59954964,9.02349296 C2.4104544,11.4381972 1.5386933,12.2607465 0.901480226,12.8602817 C0.738607748,13.0140845 0.585058918,13.1584225 0.454236481,13.3157746 L0.400625504,13.3965211 C-0.0352550444,14.2134507 0.0148595642,15.2335775 0.0763373688,15.9106056 C0.092071025,16.088662 0.0649741727,16.2445352 0.0649741727,16.3658028 L0.0649741727,16.6476761 L0.34934544,16.7852113 C2.35480387,17.9233521 4.98174173,18.452493 8.57134625,18.452493 C12.1609508,18.452493 14.8196473,17.9233521 16.8251057,16.7852113 L17.1199661,16.6476761 L17.1199661,16.3658028 C17.1199661,16.2445352 17.0925779,16.088662 17.1097684,15.9106056 Z M16.1229185,15.8215775 C16.1150517,15.9094225 16.1068935,15.9925352 16.102523,16.0700282 C14.2721743,17.0380986 11.875414,17.4900423 8.59290718,17.4900423 C5.31069169,17.4900423 2.91364003,17.0380986 1.08358273,16.0700282 C1.07658999,15.9925352 1.06988862,15.9094225 1.06289588,15.8215775 C1.01074173,15.2427465 0.939066182,14.4559859 1.21207425,13.8978592 C1.30094027,13.7972958 1.41573769,13.6887465 1.54685149,13.5651127 C2.25574011,12.8972535 3.32795964,11.888662 3.54531719,9.09980282 C3.75713882,6.41564789 5.42782002,3.52622535 8.59290718,3.52622535 C11.7579944,3.52622535 13.4289669,6.41564789 13.6404972,9.09980282 C13.8578547,11.888662 14.9312397,12.8984366 15.6404197,13.5662958 C15.7712421,13.6899296 15.8860395,13.7984789 15.9749056,13.8990423 C16.2470395,14.4559859 16.175364,15.2439296 16.1229185,15.8215775 Z" id="Fill-3"></path>
                    </g>
                </g>
            </g>
        </g>
    </g>
</svg>
