<?xml version="1.0" encoding="UTF-8"?>
<svg width="19px" height="13px" viewBox="0 0 19 13" version="1.1" xmlns="http://www.w3.org/2000/svg" xmlns:xlink="http://www.w3.org/1999/xlink">
    <!-- Generator: Sketch 43.2 (39069) - http://www.bohemiancoding.com/sketch -->
    <title>Page 1</title>
    <desc>Created with Sketch.</desc>
    <defs></defs>
    <g id="Articles,-News-&amp;-Media" stroke="none" stroke-width="1" fill="none" fill-rule="evenodd">
        <g id="Article-Page" transform="translate(-462.000000, -3490.000000)" stroke="#979797" stroke-width="0.5" fill="#9B9B9B">
            <path d="M469.560156,3490.80355 C469.530468,3490.8098 469.503124,3490.82308 469.478906,3490.84105 L463.078906,3495.84185 C463.028906,3495.87935 463,3495.93872 463,3496.00122 C463,3496.06372 463.028906,3496.12232 463.078906,3496.1606 L469.478906,3501.1606 C469.539062,3501.20826 469.621094,3501.21763 469.690626,3501.18482 C469.760158,3501.15122 469.803908,3501.08091 469.803908,3501.00435 L469.803908,3498.60435 C470.518748,3498.58404 475.985108,3498.55513 479.872708,3501.95435 C479.940676,3502.0106 480.037552,3502.01529 480.110988,3501.96607 C480.184426,3501.91763 480.217238,3501.82622 480.191456,3501.74185 C478.530516,3496.62465 473.394656,3494.38785 469.803856,3493.45425 L469.803856,3491.00425 C469.805418,3490.94253 469.778856,3490.88394 469.7312,3490.84487 C469.683544,3490.80581 469.620262,3490.79097 469.560106,3490.80425 L469.560156,3490.80355 Z M469.403906,3491.41605 L469.403906,3493.60365 C469.403906,3493.69506 469.465624,3493.77474 469.553906,3493.7974 C472.922706,3494.65052 477.685906,3496.7052 479.528906,3501.2098 C475.382906,3498.0394 469.949306,3498.1864 469.591306,3498.2036 C469.485838,3498.21063 469.403806,3498.29813 469.403806,3498.4036 L469.403806,3500.5848 L463.535006,3496.0036 L469.403906,3491.41605 Z" id="Page-1"></path>
        </g>
    </g>
</svg>