<?xml version="1.0" encoding="UTF-8" standalone="no"?>
<svg width="17px" height="17px" viewBox="0 0 17 17" version="1.1" xmlns="http://www.w3.org/2000/svg" xmlns:xlink="http://www.w3.org/1999/xlink">
    <!-- Generator: Sketch 42 (36781) - http://www.bohemiancoding.com/sketch -->
    <title>Page 1</title>
    <desc>Created with Sketch.</desc>
    <defs></defs>
    <g id="Feed/Profile-Visuals" stroke="none" stroke-width="1" fill="none" fill-rule="evenodd">
        <g id="Reed-Feed-V2" transform="translate(-799.000000, -22.000000)" fill="#0042D6">
            <g id="Group-5" transform="translate(548.000000, 16.000000)">
                <path d="M267.106788,21.2115703 L263.6968,17.848 C264.7584,16.5938667 265.4,14.972 265.4,13.2 C265.4,9.224 262.176,6 258.2,6 C254.224,6 251,9.224 251,13.2 C251,17.176 254.224,20.4 258.2,20.4 C259.972,20.4 261.593867,19.7584 262.848,18.6968 L266.257721,22.0595703 C266.413188,22.2147703 266.668388,22.2147703 266.823588,22.0595703 L267.105721,21.777437 C267.261988,21.6211703 267.261988,21.3667703 267.106788,21.2115703 Z M252.2,13.2 C252.2,9.89173333 254.891733,7.2 258.2,7.2 C261.508267,7.2 264.2,9.89173333 264.2,13.2 C264.2,16.5082667 261.508267,19.2 258.2,19.2 C254.891733,19.2 252.2,16.5082667 252.2,13.2 Z" id="Page-1"></path>
            </g>
        </g>
    </g>
</svg>