<?xml version="1.0" encoding="UTF-8"?>
<svg width="17px" height="21px" viewBox="0 0 17 21" version="1.1" xmlns="http://www.w3.org/2000/svg" xmlns:xlink="http://www.w3.org/1999/xlink">
    <!-- Generator: Sketch 43.2 (39069) - http://www.bohemiancoding.com/sketch -->
    <title>Page 1</title>
    <desc>Created with Sketch.</desc>
    <defs></defs>
    <g id="Articles,-News-&amp;-Media" stroke="none" stroke-width="1" fill="none" fill-rule="evenodd">
        <g id="iPhone-7-Copy" transform="translate(-275.000000, -1767.000000)" stroke="#979797" stroke-width="0.25" fill="#9B9B9B">
            <g id="Group-6" transform="translate(276.000000, 1767.000000)">
                <path d="M7.15384615,1.41842021 L7.15384615,13.4481894 C7.15384615,13.6392941 7.30889538,13.7943433 7.5,13.7943433 C7.69110462,13.7943433 7.84615385,13.6392941 7.84615385,13.4481894 L7.84615385,1.41842021 L10.3476923,3.91995867 C10.4153008,3.98756713 10.5036415,4.02092021 10.5928846,4.02092021 C10.6812254,4.02092021 10.7704685,3.98756713 10.8380769,3.91995867 C10.9732938,3.78474175 10.9732938,3.56568175 10.8380769,3.43047406 L7.74530769,0.338627902 C7.71285692,0.306174825 7.67499462,0.280935594 7.63262769,0.263807902 C7.58755385,0.246680209 7.54428462,0.237666363 7.50011538,0.237666363 C7.45594615,0.237666363 7.41267462,0.246680209 7.37391231,0.262005594 C7.32613615,0.280935594 7.28737385,0.307077132 7.25582308,0.338627902 L4.16305385,3.43047406 C4.02783692,3.56569098 4.02783692,3.78475098 4.16305385,3.91995867 C4.29827077,4.05517559 4.51733077,4.05517559 4.65253846,3.91995867 L7.15384615,1.41842021 Z M13.0384615,6.94880482 L10.5381538,6.94880482 C10.3470492,6.94880482 10.192,7.10385406 10.192,7.29495867 C10.192,7.48606329 10.3470492,7.64111252 10.5381538,7.64111252 L13.0384615,7.64111252 C13.7379692,7.64111252 14.3076923,8.21083559 14.3076923,8.91034329 L14.3076923,18.1401894 C14.3076923,18.8396971 13.7379692,19.4094197 13.0384615,19.4094197 L1.96153846,19.4094197 C1.26203077,19.4094197 0.692307692,18.8396971 0.692307692,18.1401894 L0.692307692,8.91034329 C0.692307692,8.21083559 1.26203077,7.64111252 1.96153846,7.64111252 L4.46184615,7.64111252 C4.65295077,7.64111252 4.808,7.48606329 4.808,7.29495867 C4.808,7.10385406 4.65295077,6.94880482 4.46184615,6.94880482 L1.96153846,6.94880482 C0.879807692,6.94880482 0,7.82861252 0,8.91034329 L0,18.1401894 C0,19.2219202 0.879807692,20.1017274 1.96153846,20.1017274 L13.0384615,20.1017274 C14.1201923,20.1017274 15,19.2219202 15,18.1401894 L15,8.91034329 C15,7.82861252 14.1201923,6.94880482 13.0384615,6.94880482 Z" id="Page-1"></path>
            </g>
        </g>
    </g>
</svg>