<?xml version="1.0" encoding="UTF-8" standalone="no"?>
<svg width="15px" height="20px" viewBox="0 0 15 20" version="1.1" xmlns="http://www.w3.org/2000/svg" xmlns:xlink="http://www.w3.org/1999/xlink">
    <!-- Generator: Sketch 42 (36781) - http://www.bohemiancoding.com/sketch -->
    <title>Group 3</title>
    <desc>Created with Sketch.</desc>
    <defs></defs>
    <g id="Feed/Profile-Visuals" stroke="none" stroke-width="1" fill="none" fill-rule="evenodd">
        <g id="Reed-Feed-V2" transform="translate(-911.000000, -1723.000000)">
            <g id="Group" transform="translate(474.000000, 1719.000000)">
                <g id="Group-5" transform="translate(438.000000, 2.000000)">
                    <g id="Group-3" transform="translate(0.000000, 2.375000)">
                        <path d="M3.11905357,6.38772973 L4.985125,4.34797297 L4.985125,12.4864865 C4.985125,13.2214054 5.59674405,13.8243243 6.34226786,13.8243243 C7.08779167,13.8243243 7.69941071,13.2214054 7.69941071,12.4864865 L7.69941071,4.34797297 L9.56548214,6.38772973 C10.0744107,6.92241892 10.8891488,6.92241892 11.3980774,6.38772973 C11.907006,5.85304054 11.907006,5.01689189 11.3980774,4.5152027 L7.49629167,0.501689189 C6.85119643,-0.16722973 5.83333929,-0.16722973 5.18824405,0.501689189 L1.28645833,4.5152027 C0.777529762,5.04989189 0.777529762,5.88604054 1.28645833,6.38772973 C1.7953869,6.88941892 2.610125,6.92241892 3.11905357,6.38772973 Z" id="Page-1" fill="#DADADA"></path>
                        <polyline id="Rectangle-30" stroke="#DADADA" stroke-width="2" stroke-linecap="round" points="12.2142857 10.7398649 12.2142857 17.875 0 17.875 0 10.7398649"></polyline>
                    </g>
                </g>
            </g>
        </g>
    </g>
</svg>