<?xml version="1.0" encoding="UTF-8"?>
<svg width="39px" height="39px" viewBox="0 0 39 39" version="1.1" xmlns="http://www.w3.org/2000/svg" xmlns:xlink="http://www.w3.org/1999/xlink">
    <!-- Generator: Sketch 42 (36781) - http://www.bohemiancoding.com/sketch -->
    <title>Page 1</title>
    <desc>Created with Sketch.</desc>
    <defs></defs>
    <g id="Feed/Profile-Visuals" stroke="none" stroke-width="1" fill="none" fill-rule="evenodd">
        <g id="Reed-Feed-V2" transform="translate(-836.000000, -132.000000)" fill="#0042D6">
            <path d="M861.265115,152.252608 C860.867331,155.082775 858.436638,157.261474 855.496621,157.261474 C852.554697,157.261474 850.12549,155.082992 849.726393,152.252608 C849.670532,151.851439 849.99553,151.499349 850.400091,151.499349 L860.592023,151.499349 C860.996576,151.499349 861.323268,151.85143 861.265722,152.252608 L861.265115,152.252608 Z M857.669816,148.171502 C857.669816,147.47917 858.230112,146.918917 858.920711,146.918917 C859.613043,146.918917 860.173296,147.479213 860.173296,148.171502 C860.173296,148.862144 859.613,149.422397 858.920711,149.422397 C858.230069,149.422397 857.669816,148.8621 857.669816,148.171502 Z M850.826229,148.171502 C850.826229,147.47917 851.388215,146.918917 852.078814,146.918917 C852.769412,146.918917 853.329709,147.479213 853.329709,148.171502 C853.329709,148.862144 852.769412,149.422397 852.078814,149.422397 C851.388215,149.422397 850.826229,148.8621 850.826229,148.171502 Z M841.711123,139.076763 C841.335343,138.699293 841.335343,138.088249 841.711123,137.710775 C842.088593,137.333305 842.699636,137.333305 843.077111,137.710775 L846.347412,140.981076 C846.724882,141.358546 846.724882,141.96959 846.347412,142.347064 C846.159524,142.534952 845.912392,142.629743 845.665263,142.629743 C845.418131,142.629743 845.171007,142.534952 844.983114,142.347064 L841.711123,139.076763 Z M869.288705,163.922196 C869.666175,164.299666 869.666175,164.910709 869.288705,165.288184 C869.099123,165.476071 868.853685,165.570862 868.606556,165.570862 C868.357729,165.570862 868.112299,165.476071 867.922717,165.288184 L864.652416,162.016192 C864.274946,161.640412 864.274946,161.027679 864.652416,160.651895 C865.029886,160.274425 865.640929,160.274425 866.018404,160.651895 L869.288705,163.922196 Z M846.347759,160.651895 C846.725228,161.027675 846.725228,161.640408 846.347759,162.017882 L843.077457,165.288184 C842.887875,165.476071 842.642437,165.570862 842.395308,165.570862 C842.148176,165.570862 841.901052,165.476071 841.71147,165.288184 C841.33569,164.910714 841.33569,164.29967 841.71147,163.922196 L844.983461,160.651895 C845.359241,160.274425 845.970284,160.274425 846.347759,160.651895 Z M864.652503,142.347151 C864.275033,141.969681 864.275033,141.358637 864.652503,140.981163 L867.922804,137.710862 C868.300274,137.333392 868.911317,137.333392 869.288792,137.710862 C869.666261,138.088332 869.666261,138.699375 869.288792,139.076849 L866.01849,142.347151 C865.830602,142.535038 865.58178,142.629829 865.336341,142.629829 C865.087514,142.629829 864.842085,142.535038 864.652503,142.347151 Z M841.591091,152.46455 L836.964854,152.46455 C836.43333,152.46455 836,152.032913 836,151.499696 C836,150.966479 836.43333,150.534842 836.964854,150.534842 L841.591091,150.534842 C842.124304,150.534842 842.555944,150.966479 842.555944,151.499696 C842.555944,152.032913 842.124308,152.46455 841.591091,152.46455 Z M875,151.499696 C875,152.032909 874.568364,152.46455 874.035146,152.46455 L869.408911,152.46455 C868.875698,152.46455 868.444057,152.032913 868.444057,151.499696 C868.444057,150.966479 868.875693,150.534842 869.408911,150.534842 L874.035146,150.534842 C874.56836,150.534842 875,150.966479 875,151.499696 Z M856.465158,165.408736 L856.465158,170.03497 C856.465158,170.568183 856.033521,170.999823 855.500304,170.999823 C854.967087,170.999823 854.53545,170.568187 854.53545,170.03497 L854.53545,165.408736 C854.53545,164.875523 854.967087,164.443883 855.500304,164.443883 C856.033521,164.443883 856.465158,164.875519 856.465158,165.408736 Z M854.535494,137.591089 L854.535494,132.964854 C854.535494,132.43164 854.96713,132 855.500347,132 C856.033565,132 856.465201,132.431636 856.465201,132.964854 L856.465201,137.591089 C856.465201,138.124302 856.033565,138.555943 855.500347,138.555943 C854.96713,138.555943 854.535494,138.124307 854.535494,137.591089 Z M855.500347,159.85864 C850.891012,159.85864 847.141837,156.109335 847.141837,151.500129 C847.141837,146.890924 850.891142,143.141619 855.500347,143.141619 C860.109553,143.141619 863.858858,146.890924 863.858858,151.500129 C863.858858,156.109335 860.109553,159.85864 855.500347,159.85864 Z M855.500347,141.210265 C849.818085,141.210265 845.210483,145.817867 845.210483,151.500129 C845.210483,157.182391 849.818085,161.789994 855.500347,161.789994 C861.182609,161.789994 865.790212,157.182391 865.790212,151.500129 C865.790212,145.817867 861.182609,141.210265 855.500347,141.210265 Z" id="Page-1"></path>
        </g>
    </g>
</svg>