<?xml version="1.0" encoding="UTF-8"?>
<svg width="17px" height="18px" viewBox="0 0 17 18" version="1.1" xmlns="http://www.w3.org/2000/svg" xmlns:xlink="http://www.w3.org/1999/xlink">
    <!-- Generator: Sketch 43.2 (39069) - http://www.bohemiancoding.com/sketch -->
    <title>Group 21</title>
    <desc>Created with Sketch.</desc>
    <defs></defs>
    <g id="Chat-&amp;-Notifications" stroke="none" stroke-width="1" fill="none" fill-rule="evenodd">
        <g id="Online-Chat-Menu-+-Active-Chats" transform="translate(-983.000000, -833.000000)" fill="#FF2C54">
            <g id="Group-21" transform="translate(983.000000, 833.000000)">
                <path d="M8.51192025,0 C3.82040201,0 0,3.86126193 0,8.60295683 C0,13.3446517 3.82040201,17.2059137 8.51192025,17.2059137 C10.0624769,17.2059137 11.6130335,16.7858345 12.93711,15.9431271 L16.6455329,17.2059137 L16.7201856,17.2059137 C16.7953427,17.2059137 16.8720131,17.1681881 16.9093394,17.1304625 C16.9844965,17.0545016 17.0238405,16.9392857 16.9844965,16.82356 L15.7350727,13.0754748 C16.566845,11.737237 16.9844965,10.1700969 16.9844965,8.60295683 C17.0238405,3.86126193 13.2034385,0 8.51192025,0 Z M15.169629,13.1157494 L16.2672254,16.4412064 L12.9769584,15.331871 C12.9018013,15.2941455 12.8251309,15.331871 12.7499738,15.3695966 C11.4637281,16.1725392 10.0271682,16.6323832 8.51393789,16.6323832 C4.12607453,16.6323832 0.569478991,13.0377492 0.569478991,8.60295683 C0.569478991,4.16816445 4.12607453,0.573530456 8.51393789,0.573530456 C12.9018013,0.573530456 16.4583968,4.16816445 16.4583968,8.60295683 C16.4583968,10.1323714 16.0427629,11.6240604 15.208973,12.884298 C15.169629,12.9622981 15.169629,13.0377492 15.169629,13.1157494 Z" id="Fill-1"></path>
                <ellipse id="Oval-8" cx="8.5" cy="8.55" rx="8.5" ry="8.55"></ellipse>
                <polygon id="Path-3" points="12.5719701 15.136084 16.7103464 16.8765381 15.2760588 12.7900635"></polygon>
            </g>
        </g>
    </g>
</svg>