<?xml version="1.0" encoding="UTF-8" standalone="no"?>
<svg width="38px" height="31px" viewBox="0 0 38 31" version="1.1" xmlns="http://www.w3.org/2000/svg" xmlns:xlink="http://www.w3.org/1999/xlink">
    <!-- Generator: Sketch 42 (36781) - http://www.bohemiancoding.com/sketch -->
    <title>Page 1</title>
    <desc>Created with Sketch.</desc>
    <defs></defs>
    <g id="Reed-Feed-Wires" stroke="none" stroke-width="1" fill="none" fill-rule="evenodd">
        <g id="Reed-Feed---MVP" transform="translate(-181.000000, -185.000000)" fill="#FFF">
            <g id="Page-1" transform="translate(181.000000, 185.000000)">
                <path d="M22.4166264,15.5165854 L20.5743122,15.5165854 L20.5743122,13.6737757 C20.5743122,12.6574803 19.7458159,11.830966 18.7315025,11.830966 C17.7152071,11.830966 16.8886929,12.6594624 16.8886929,13.6737757 L16.8886929,15.5165854 L15.0458832,15.5165854 C14.0300833,15.5165854 13.203569,16.3450817 13.203569,17.3593951 C13.203569,18.3756905 14.0320653,19.2022048 15.0458832,19.2022048 L16.8886929,19.2022048 L16.8886929,21.0445189 C16.8886929,22.0608143 17.7171892,22.8873286 18.7315025,22.8873286 C19.747798,22.8873286 20.5743122,22.0588323 20.5743122,21.0445189 L20.5743122,19.2022048 L22.4166264,19.2022048 C23.4329218,19.2022048 24.2594361,18.3737084 24.2594361,17.3593951 C24.2614181,16.3450817 23.4329218,15.5165854 22.4166264,15.5165854 Z" id="Fill-2"></path>
                <g id="Group-7">
                    <path d="M35.3212493,6.29906842 L27.4317048,6.29906842 C26.6403719,6.29906842 25.9377357,5.79215949 25.6820514,5.03749449 L24.6816124,2.02924024 C24.4279102,1.27457524 23.7232919,0.767170797 22.9314635,0.767170797 L14.5275775,0.767170797 C13.7357491,0.767170797 13.0331128,1.27457524 12.7774286,2.02924024 L11.7750075,5.04096307 C11.5213053,5.79017744 10.816687,6.29906842 10.0273362,6.29906842 L2.13779173,6.29906842 C1.11951426,6.29906842 0.293,7.12558268 0.293,8.1418781 L0.293,28.4231903 C0.293,29.4394857 1.12149631,30.266 2.13580968,30.266 L35.3212493,30.266 C36.3375447,30.266 37.1640589,29.4375037 37.1640589,28.4231903 L37.1640589,8.1418781 C37.166041,7.12558268 36.3395267,6.29906842 35.3212493,6.29906842 Z M18.7295205,26.5783986 C13.6485389,26.5783986 9.51200352,22.4403766 9.51200352,17.3613771 C9.51200352,12.2803956 13.650521,8.14386015 18.7295205,8.14386015 C23.8105021,8.14386015 27.9470375,12.2823776 27.9470375,17.3613771 C27.9470375,22.4423587 23.8105021,26.5783986 18.7295205,26.5783986 Z" id="Fill-1"></path>
                    <path d="M22.4166264,15.5165854 L20.5743122,15.5165854 L20.5743122,13.6737757 C20.5743122,12.6574803 19.7458159,11.830966 18.7315025,11.830966 C17.7152071,11.830966 16.8886929,12.6594624 16.8886929,13.6737757 L16.8886929,15.5165854 L15.0458832,15.5165854 C14.0300833,15.5165854 13.203569,16.3450817 13.203569,17.3593951 C13.203569,18.3756905 14.0320653,19.2022048 15.0458832,19.2022048 L16.8886929,19.2022048 L16.8886929,21.0445189 C16.8886929,22.0608143 17.7171892,22.8873286 18.7315025,22.8873286 C19.747798,22.8873286 20.5743122,22.0588323 20.5743122,21.0445189 L20.5743122,19.2022048 L22.4166264,19.2022048 C23.4329218,19.2022048 24.2594361,18.3737084 24.2594361,17.3593951 C24.2614181,16.3450817 23.4329218,15.5165854 22.4166264,15.5165854 Z" id="Fill-2"></path>
                </g>
            </g>
        </g>
    </g>
</svg>
