<?xml version="1.0" encoding="UTF-8"?>
<svg width="32px" height="25px" viewBox="0 0 32 25" version="1.1" xmlns="http://www.w3.org/2000/svg" xmlns:xlink="http://www.w3.org/1999/xlink">
    <!-- Generator: Sketch 43.1 (39012) - http://www.bohemiancoding.com/sketch -->
    <title>Group 17</title>
    <desc>Created with Sketch.</desc>
    <defs>
        <path d="M10.6285714,19.3368118 L9.14036655,17.8654654 C3.61380534,13.0311217 0,9.77390396 0,5.78045031 C0,2.52323253 2.5498669,0 5.84554355,0 C7.65301533,0 9.4593489,0.840608631 10.6285714,2.20673832 C11.7958021,0.841733943 13.6052657,0 15.4115993,0 C18.707276,0 21.2571429,2.52323253 21.2571429,5.78045031 C21.2571429,9.77390396 17.6433375,13.0311217 12.1159227,17.8654654 L10.6285714,19.3368118 Z" id="path-1"></path>
    </defs>
    <g id="Bookstore---Specs" stroke="none" stroke-width="1" fill="none" fill-rule="evenodd">
        <g id="Book-Page---spec" transform="translate(-89.000000, -935.000000)">
            <g id="Group-9" transform="translate(91.000000, 937.000000)">
                <g id="Group-17">
                    <polygon id="Line" fill="#0092FF" fill-rule="nonzero" points="8.62857143 4.25210084 29.8857143 4.25210084 29.8857143 1.41736695 8.62857143 1.41736695"></polygon>
                    <polygon id="Line" fill="#0092FF" fill-rule="nonzero" points="15.7142857 12.7563025 29.8857143 12.7563025 29.8857143 9.92156863 15.7142857 9.92156863"></polygon>
                    <polygon id="Line" fill="#0092FF" fill-rule="nonzero" points="10.6285714 21.2605042 29.8857143 21.2605042 29.8857143 18.4257703 10.6285714 18.4257703"></polygon>
                    <g id="Page-1">
                        <use fill="#0092FF" fill-rule="evenodd" xlink:href="#path-1"></use>
                        <path stroke="#FFFFFF" stroke-width="2" d="M10.6284938,0.795707005 C9.31138454,-0.337463068 7.58154906,-1 5.84554355,-1 C2.00064583,-1 -1,1.967861 -1,5.78045031 C-1,9.65383008 1.04155478,12.1096547 8.48196974,18.6181364 L9.92550393,20.0479349 L10.6287732,20.7432375 L11.3318429,20.0477332 L12.8191941,18.5763868 C20.214814,12.1105903 22.2571429,9.65399891 22.2571429,5.78045031 C22.2571429,1.967861 19.256497,-1 15.4115993,-1 C13.676626,-1 11.9450461,-0.336777056 10.6284938,0.795707005 Z"></path>
                    </g>
                </g>
            </g>
        </g>
    </g>
</svg>